<?xml version="1.0" standalone="no"?><svg xmlns="http://www.w3.org/2000/svg" viewBox="0 0 1440 320"><path fill="#161616" fill-opacity="1" d="M0,160L34.3,133.3C68.6,107,137,53,206,64C274.3,75,343,149,411,181.3C480,213,549,203,617,208C685.7,213,754,235,823,208C891.4,181,960,107,1029,101.3C1097.1,96,1166,160,1234,170.7C1302.9,181,1371,139,1406,117.3L1440,96L1440,0L1405.7,0C1371.4,0,1303,0,1234,0C1165.7,0,1097,0,1029,0C960,0,891,0,823,0C754.3,0,686,0,617,0C548.6,0,480,0,411,0C342.9,0,274,0,206,0C137.1,0,69,0,34,0L0,0Z"></path></svg>