<?xml version="1.0" encoding="utf-8"?>
<!-- Generator: Adobe Illustrator 23.0.2, SVG Export Plug-In . SVG Version: 6.00 Build 0)  -->
<svg version="1.1" id="Layer_1" xmlns="http://www.w3.org/2000/svg" xmlns:xlink="http://www.w3.org/1999/xlink" x="0px" y="0px"
	 viewBox="0 0 1000 432" enable-background="new 0 0 1000 432" xml:space="preserve">
<g>
	<path fill-rule="evenodd" clip-rule="evenodd" fill="#FFFFFF" d="M673.29,372.379c-8.709-7.379-17.928-14.198-26.293-21.935
		c-26.158-24.19-49.365-50.39-65.804-80.884H209.148c-30.386,0-55.246,24.272-55.246,53.939c0,29.667,24.86,53.939,55.246,53.939
		H686.99v-0.144C682.428,377.557,677.674,376.097,673.29,372.379z"/>
	<path fill="#FFC100" d="M803.933,146.062c-17.233-54.797-65.504-86.803-116.679-86.99v-0.018c-0.209-0.001-0.414,0.009-0.624,0.009
		c-0.159,0-0.32-0.008-0.482-0.007v0.014c-51.635,0.183-100.345,32.19-117.732,86.991c-7.991,25.183-7.071,50.593-0.721,75.662
		c13.268,52.361,45.664,92.759,84.551,128.722c8.365,7.737,17.584,14.557,26.293,21.935c8.625,7.314,9.053,6.153,16.249,0
		c8.631-7.379,17.768-14.198,26.059-21.935c38.543-35.963,70.651-76.359,83.8-128.722
		C810.94,196.655,811.852,171.245,803.933,146.062z M685.882,273.463c-49.272,0.469-90.705-39.735-90.487-91.116
		c0.221-52.279,42.188-90.558,90.479-90.498c49.956,0.063,90.422,39.234,91.021,90.822
		C777.476,232.618,735.966,273.423,685.882,273.463z"/>
	<g>
		<path fill-rule="evenodd" clip-rule="evenodd" fill="#161616" d="M686.566,104.456c-41.611-0.727-77.887,33.7-78.349,76.32
			c-0.489,44.856,33.475,79.662,78.061,79.962c44.145,0.297,78.318-36.701,78.123-77.355
			C764.533,139.515,730.269,105.22,686.566,104.456z M634.108,156.303c11.095-20.026,27.396-31.671,50.872-32.115
			c23.688-0.447,40.773,10.366,52.471,30.477c0.645,1.111,0.928,2.433,1.346,3.565c-0.754,4.666-3.097,5.233-7.008,3.373
			c-11.226-5.343-23-8.952-35.353-10.593c-18.983-2.524-36.632,2.42-53.873,9.629c-1.199,0.502-2.321,1.192-3.529,1.674
			c-1.886,0.751-3.311-0.091-4.669-1.387C632.767,159.404,633.136,158.055,634.108,156.303z M667.224,237.699
			c-17.984-6.561-29.776-19.03-36.31-36.762c-1.015-2.76-1.917-5.455,2.945-5.728c19.253-1.081,39.923,18.612,39.789,38.632
			C674.387,239.069,672.15,239.498,667.224,237.699z M685.9,198.791c-8.248,0.127-15.88-7.29-16.09-15.637
			c-0.238-9.47,6.643-16.716,16.098-16.949c9.044-0.222,16.451,6.667,16.687,15.521C702.845,191.163,695.526,198.644,685.9,198.791z
			 M741.717,200.596c-6.72,18.819-19.485,31.549-38.544,37.749c-5.287,1.72-4.229-2.457-4.503-4.897
			c0.598-20.048,19.059-37.948,38.77-38.242C741.799,195.141,743.104,196.712,741.717,200.596z"/>
	</g>
	<g>
		<path d="M202.387,304.119c1.919,0.124,3.573,0.217,4.966,0.279c1.392,0.061,2.5,0.093,3.325,0.093c1.588,0,4.279-0.103,8.073-0.31
			c0.536-0.041,0.928-0.063,1.176-0.063v2.507c-1.567,0.041-2.635,0.216-3.201,0.525c-0.568,0.309-0.852,0.835-0.852,1.577
			c0,0.309,0.052,0.706,0.155,1.19c0.103,0.485,0.267,1.099,0.495,1.842l8.784,28.086l8.692-25.611l-1.206-3.466
			c-0.619-1.835-1.259-2.974-1.919-3.417c-0.66-0.443-1.732-0.686-3.216-0.727v-2.507c0.681,0.022,1.628,0.063,2.845,0.124
			c2.805,0.166,4.64,0.248,5.506,0.248c1.567,0,4.238-0.103,8.012-0.31c0.639-0.041,1.124-0.063,1.453-0.063v2.507
			c-1.814,0.082-3,0.288-3.557,0.617c-0.557,0.331-0.834,0.908-0.834,1.732c0,0.29,0.046,0.63,0.138,1.022
			c0.094,0.393,0.265,0.979,0.512,1.764l8.599,27.869l9.249-27.685c0.164-0.495,0.294-0.995,0.386-1.5
			c0.094-0.505,0.14-0.933,0.14-1.284c0-0.887-0.33-1.521-0.99-1.902c-0.66-0.381-1.855-0.592-3.588-0.633v-2.507
			c1.609,0.104,2.887,0.181,3.837,0.231c0.947,0.053,1.762,0.078,2.443,0.078c0.681,0,1.494-0.025,2.442-0.078
			c0.948-0.051,2.135-0.128,3.558-0.231v2.507c-1.402,0.144-2.397,0.412-2.984,0.803c-0.589,0.393-1.047,1.063-1.377,2.011
			l-9.991,28.552c-0.247,0.723-0.772,2.19-1.577,4.408c-0.805,2.217-1.764,4.799-2.877,7.747l-3.094-0.432l-10.578-31.489
			l-7.424,21.281c-0.517,1.547-1.109,3.217-1.779,5.011c-0.67,1.794-1.387,3.671-2.149,5.629l-3.155-0.432l-13.363-39.223
			c-0.598-1.712-1.227-2.785-1.886-3.217c-0.66-0.434-1.723-0.649-3.188-0.649V304.119z"/>
		<path d="M280.035,304.119c0.639,0.022,1.546,0.063,2.723,0.124c3.175,0.166,5.288,0.248,6.34,0.248
			c1.341,0,3.805-0.093,7.393-0.278c0.928-0.041,1.629-0.072,2.104-0.094v2.507c-2.249,0-3.686,0.309-4.315,0.928
			c-0.63,0.619-0.943,2.082-0.943,4.392v12.188h20.168v-12.188c0-2.35-0.305-3.815-0.913-4.392
			c-0.608-0.578-2.036-0.887-4.284-0.928v-2.507c0.577,0.022,1.393,0.063,2.444,0.124c3.218,0.166,5.402,0.248,6.558,0.248
			c1.319,0,3.783-0.093,7.394-0.278c0.907-0.041,1.608-0.072,2.103-0.094v2.507c-2.288,0.041-3.738,0.359-4.346,0.958
			c-0.608,0.599-0.913,2.052-0.913,4.361v29.85c0,2.393,0.31,3.878,0.929,4.455c0.618,0.577,2.063,0.866,4.33,0.866l-0.03,2.475
			c-1.712-0.103-3.341-0.181-4.888-0.232c-1.547-0.051-2.928-0.077-4.146-0.077c-0.846,0-1.944,0.021-3.294,0.061
			c-1.352,0.041-3.398,0.123-6.141,0.248v-2.475c2.248,0,3.676-0.304,4.284-0.912c0.608-0.609,0.913-2.078,0.913-4.409v-15.126
			h-20.168v15.126c0,2.352,0.311,3.825,0.928,4.424c0.619,0.599,2.061,0.897,4.331,0.897v2.475
			c-2.475-0.125-4.397-0.207-5.768-0.248c-1.373-0.041-2.459-0.061-3.265-0.061c-1.36,0-2.846,0.026-4.454,0.077
			c-1.608,0.052-3.289,0.13-5.041,0.232l-0.031-2.475c2.289,0,3.737-0.304,4.346-0.912c0.608-0.609,0.912-2.078,0.912-4.409v-29.85
			c0-2.35-0.304-3.815-0.912-4.392c-0.608-0.578-2.057-0.887-4.346-0.928V304.119z"/>
		<path d="M377.849,303.934c0.063,1.484,0.145,3.155,0.248,5.011c0.103,1.855,0.258,4.217,0.465,7.084h-2.104
			c-0.393-3.713-1.32-6.208-2.783-7.486c-1.465-1.278-4.25-1.917-8.353-1.917h-9.651v17.631h4.454c2.826,0,4.605-0.412,5.337-1.237
			c0.732-0.824,1.19-2.763,1.376-5.816l2.072,0.031c-0.021,0.618-0.052,1.505-0.093,2.66c-0.104,2.948-0.155,4.907-0.155,5.877
			c0,1.63,0.072,4.352,0.217,8.166c0.021,0.578,0.031,1.001,0.031,1.269h-2.072c-0.165-3.506-0.654-5.775-1.469-6.806
			c-0.814-1.03-2.563-1.547-5.244-1.547h-4.454v20.2h11.972c4.248,0,7.141-0.731,8.677-2.196c1.535-1.465,2.49-4.3,2.86-8.507h2.103
			c-0.227,2.495-0.412,4.83-0.557,7.006c-0.144,2.176-0.258,4.253-0.34,6.233H342.37v-2.475c2.289,0,3.736-0.304,4.346-0.912
			c0.608-0.609,0.912-2.078,0.912-4.409v-29.85c0-2.35-0.304-3.815-0.912-4.392c-0.609-0.578-2.057-0.887-4.346-0.928v-2.507h8.104
			c5.732,0,10.883-0.02,15.451-0.062C370.492,304.016,374.467,303.975,377.849,303.934z"/>
		<path d="M431.895,303.934c0.063,1.484,0.145,3.155,0.248,5.011c0.102,1.855,0.258,4.217,0.464,7.084h-2.103
			c-0.393-3.713-1.32-6.208-2.783-7.486c-1.465-1.278-4.25-1.917-8.353-1.917h-9.65v17.631h4.454c2.826,0,4.605-0.412,5.337-1.237
			c0.732-0.824,1.189-2.763,1.376-5.816l2.071,0.031c-0.02,0.618-0.051,1.505-0.092,2.66c-0.104,2.948-0.155,4.907-0.155,5.877
			c0,1.63,0.072,4.352,0.217,8.166c0.021,0.578,0.03,1.001,0.03,1.269h-2.071c-0.165-3.506-0.655-5.775-1.469-6.806
			c-0.815-1.03-2.564-1.547-5.244-1.547h-4.454v20.2h11.972c4.248,0,7.14-0.731,8.677-2.196c1.535-1.465,2.49-4.3,2.86-8.507h2.104
			c-0.228,2.495-0.413,4.83-0.559,7.006c-0.143,2.176-0.257,4.253-0.339,6.233h-38.017v-2.475c2.289,0,3.737-0.304,4.346-0.912
			c0.609-0.609,0.912-2.078,0.912-4.409v-29.85c0-2.35-0.303-3.815-0.912-4.392c-0.608-0.578-2.057-0.887-4.346-0.928v-2.507h8.104
			c5.732,0,10.882-0.02,15.45-0.062C424.537,304.016,428.513,303.975,431.895,303.934z"/>
		<path d="M450.461,304.119c2.103,0.124,3.928,0.217,5.475,0.279c1.547,0.061,2.784,0.093,3.713,0.093
			c1.751,0,4.722-0.103,8.908-0.31c0.618-0.041,1.071-0.063,1.361-0.063v2.507h-0.619c-2.393,0-3.913,0.293-4.564,0.881
			c-0.648,0.587-0.974,2.067-0.974,4.438v34.923h9.961c4.124,0,6.97-0.81,8.537-2.428c1.567-1.619,2.566-4.842,2.999-9.666h2.259
			l-1.206,15.002c-3.98-0.104-7.63-0.181-10.95-0.232c-3.32-0.051-5.836-0.078-7.548-0.078c-3.547,0-9.074,0.043-16.58,0.125h-0.772
			v-2.475c2.289,0,3.737-0.304,4.346-0.912c0.608-0.609,0.913-2.078,0.913-4.409v-29.85c0-2.35-0.305-3.815-0.913-4.392
			c-0.608-0.578-2.057-0.887-4.346-0.928V304.119z"/>
		<path d="M529.345,307.336l0.495-2.475h1.887c-0.041,1.32-0.077,2.484-0.107,3.494c-0.032,1.012-0.048,1.857-0.048,2.538
			c0,1.031,0.016,2.123,0.048,3.277c0.03,1.156,0.066,2.403,0.107,3.743h-2.011c-0.371-3.794-1.541-6.707-3.512-8.738
			c-1.969-2.031-4.592-3.047-7.871-3.047c-2.536,0-4.6,0.738-6.188,2.212c-1.588,1.475-2.381,3.378-2.381,5.707
			c0,1.98,0.572,3.578,1.716,4.794c1.146,1.218,3.677,2.559,7.595,4.022c6,2.249,9.919,4.352,11.754,6.311
			c1.836,1.959,2.753,4.516,2.753,7.671c0,4-1.442,7.218-4.33,9.65c-2.888,2.434-6.723,3.649-11.508,3.649
			c-2.433,0-4.701-0.397-6.804-1.19c-2.103-0.793-4.095-1.995-5.971-3.603l-0.773,3.155h-1.824c0-0.722,0.01-1.732,0.031-3.031
			c0.061-2.453,0.092-4.041,0.092-4.764c0-0.619-0.02-1.98-0.061-4.083c-0.042-1.279-0.061-2.278-0.061-3h2.195
			c0.248,4.392,1.49,7.826,3.727,10.301c2.237,2.475,5.201,3.711,8.894,3.711c2.701,0,4.845-0.722,6.434-2.165
			c1.588-1.443,2.381-3.413,2.381-5.908c0-1.96-0.598-3.567-1.793-4.825c-1.196-1.258-3.393-2.476-6.589-3.65
			c-0.392-0.144-0.99-0.35-1.794-0.619c-4.082-1.443-6.99-2.804-8.723-4.083c-1.671-1.216-2.887-2.592-3.65-4.129
			c-0.763-1.536-1.145-3.366-1.145-5.491c0-4.041,1.351-7.258,4.052-9.65c2.701-2.392,6.353-3.588,10.951-3.588
			c2.269,0,4.407,0.313,6.418,0.943C525.742,305.104,527.614,306.057,529.345,307.336z"/>
	</g>
	<g>
		<g>
			<g>
				<path fill-rule="evenodd" clip-rule="evenodd" fill="#161616" d="M241.337,163.767c0.168,8.911,0.04,17.817,0.676,26.715
					c0.289,4.079,1.126,7.988,2.553,11.814c1.044,2.806,2.854,4.887,5.444,6.255c3.234,1.708,6.563,3.031,10.368,3.008
					c8.905-0.053,17.813,0.112,26.719,0.106c3.666-0.003,7.203-0.71,10.656-2.084c3.865-1.538,6.328-4.272,7.666-8.062
					c1.311-3.714,1.045-7.587,0.666-11.418c-0.145-1.467-1.275-2.329-3.033-2.372c-4.045-0.098-8.096-0.078-12.145-0.104
					c-2.632-0.016-5.267,0.059-7.893-0.066c-2.835-0.135-3.732-0.904-3.76-3.66c-0.087-8.704-0.066-17.41,0.017-26.114
					c0.021-2.494,0.799-3.215,3.209-3.572c1.195-0.178,2.417-0.279,3.627-0.275c20.24,0.067,40.483,0.158,60.725,0.238
					c6.773,0.027,6.922,0.111,6.939,6.655c0.029,10.122,0.228,20.253-0.107,30.365c-0.384,11.601-2.463,22.976-7.296,33.595
					c-5.46,11.988-14.593,20.292-27.075,24.6c-8.623,2.976-17.525,4.941-26.695,5.036c-13.562,0.143-27.13,0.191-40.693,0.036
					c-8.566-0.099-16.932-1.843-24.759-5.292c-11.548-5.092-19.85-13.645-25.403-24.998c-3.053-6.238-4.665-12.907-6.578-19.499
					c-0.223-0.773-0.48-1.576-0.49-2.37c-0.086-7.292-1.748-14.456-1.677-21.77c0.105-10.526,0.118-21.056,0-31.582
					c-0.086-7.72,0.759-15.408,1.843-22.963c1.404-9.777,4.14-19.333,9.201-28.081c6.604-11.414,16.246-18.857,28.623-23.002
					c9.302-3.115,18.868-4.419,28.657-4.36c9.717,0.058,19.436-0.064,29.153,0.059c10.417,0.132,20.478,2.129,30.178,6.041
					c9.616,3.876,17.606,9.889,24.116,17.874c1.643,2.018,3.063,4.299,4.174,6.654c3.685,7.808,5.507,16.025,4.789,24.707
					c-0.203,2.448-0.899,3.187-3.398,3.307c-2.628,0.126-5.262,0.115-7.895,0.117c-10.122,0.008-20.245-0.003-30.368-0.006
					c-1.012-0.001-2.024-0.037-3.037-0.004c-2.084,0.068-3.489-0.811-4.098-2.847c-0.23-0.775-0.434-1.56-0.657-2.336
					c-1.424-4.904-4.687-7.865-9.584-9.159c-3.92-1.036-7.838-1.886-11.948-1.789c-5.262,0.124-10.531,0.097-15.791-0.039
					c-4.924-0.126-9.643,0.691-14.317,2.191c-3.931,1.261-6.596,3.59-8.071,7.509c-1.662,4.413-2.52,8.958-2.66,13.621
					C241.63,145.552,241.518,154.661,241.337,163.767z"/>
			</g>
			<g>
				<path fill-rule="evenodd" clip-rule="evenodd" fill="#161616" d="M550.593,128.497c-0.834-10.115-2.523-20.061-6.737-29.409
					c-1.834-4.069-4.077-7.874-7.093-11.222c-5.584-6.192-12.605-9.999-20.359-12.689c-8.119-2.817-16.559-3.873-25.057-4.293
					c-13.355-0.659-26.732-0.566-40.087-0.1c-8.292,0.29-16.541,1.317-24.526,3.86c-7.205,2.295-13.899,5.404-19.538,10.648
					c-6.621,6.161-10.271,13.903-12.67,22.402c-3.103,10.985-4.334,22.213-4.343,33.6c-0.005,7.088-0.001,14.176-0.001,23.131
					c0.308,10.669-0.65,23.225,0.969,35.743c1.043,8.063,2.565,15.947,5.518,23.558c4.486,11.566,12.331,19.732,23.837,24.426
					c10.467,4.272,21.49,5.858,32.635,6.248c11.529,0.399,23.084,0.187,34.626,0.029c9.965-0.134,19.739-1.753,29.22-4.861
					c11.446-3.744,20.442-10.525,25.914-21.483c3.094-6.194,4.95-12.827,6.256-19.581c1.694-8.766,2.104-17.712,2.22-26.588
					C551.606,164.111,552.06,146.282,550.593,128.497z M501.751,181.767c-0.174,6.611-0.738,13.293-2.934,19.694
					c-1.343,3.917-3.844,6.502-7.65,7.98c-3.81,1.478-7.696,2.36-11.825,2.285c-6.066-0.11-12.137-0.03-18.206-0.036
					c-3.891-0.004-7.61-0.855-11.221-2.273c-3.81-1.498-6.283-4.124-7.588-8.082c-1.483-4.487-1.989-9.089-2.064-13.734
					c-0.133-8.29-0.038-16.584-0.038-24.878c-0.01,0-0.021,0-0.032,0c0-8.091,0.055-16.183-0.023-24.272
					c-0.038-3.877,0.689-7.65,1.311-11.429c0.425-2.585,1.293-5.102,2.966-7.231c1.526-1.942,3.304-3.543,5.73-4.287
					c3.867-1.187,7.72-2.359,11.852-2.288c4.853,0.084,9.712,0.092,14.563-0.057c4.304-0.131,8.43,0.661,12.562,1.708
					c5.166,1.31,8.324,4.488,9.908,9.561c1.763,5.649,2.527,11.47,2.65,17.293C501.984,155.066,502.095,168.426,501.751,181.767z"/>
			</g>
		</g>
	</g>
	<g>
		<g>
			<path fill="#FFC100" d="M815.894,54.561v3.955h-6.51v20.475h-4.9V58.516h-6.51v-3.955H815.894z"/>
			<path fill="#FFC100" d="M846.098,54.561v24.43h-4.9v-15.89l-6.545,15.89h-3.71l-6.58-15.89v15.89h-4.9v-24.43h5.565l7.77,18.165
				l7.77-18.165H846.098z"/>
		</g>
	</g>
</g>
</svg>
